<svg id="enwcYULbg2Q1" xmlns="http://www.w3.org/2000/svg" xmlns:xlink="http://www.w3.org/1999/xlink" viewBox="0 0 1600 1297" shape-rendering="geometricPrecision" text-rendering="geometricPrecision">
<style><![CDATA[
#enwcYULbg2Q4_to {animation: enwcYULbg2Q4_to__to 3000ms linear infinite normal forwards}@keyframes enwcYULbg2Q4_to__to { 0% {transform: translate(1181.300446px,858.901032px)} 50% {transform: translate(1181.300446px,785.144379px)} 100% {transform: translate(1181.300446px,859.210345px)}} #enwcYULbg2Q32_to {animation: enwcYULbg2Q32_to__to 3000ms linear infinite normal forwards}@keyframes enwcYULbg2Q32_to__to { 0% {transform: translate(652.153534px,548.044679px)} 50% {transform: translate(652.153534px,462.333679px)} 100% {transform: translate(652.153536px,548.353992px)}} #enwcYULbg2Q64_tr {animation: enwcYULbg2Q64_tr__tr 3000ms linear infinite normal forwards}@keyframes enwcYULbg2Q64_tr__tr { 0% {transform: translate(344.302994px,233.706497px) rotate(0deg)} 100% {transform: translate(344.302994px,233.706497px) rotate(360deg)}} #enwcYULbg2Q65_tr {animation: enwcYULbg2Q65_tr__tr 3000ms linear infinite normal forwards}@keyframes enwcYULbg2Q65_tr__tr { 0% {transform: translate(1377.215027px,1142.345032px) rotate(0deg)} 100% {transform: translate(1377.215027px,1142.345032px) rotate(270deg)}} #enwcYULbg2Q66_tr {animation: enwcYULbg2Q66_tr__tr 3000ms linear infinite normal forwards}@keyframes enwcYULbg2Q66_tr__tr { 0% {transform: translate(326.520004px,988.186981px) rotate(360deg)} 100% {transform: translate(326.520004px,988.186981px) rotate(720deg)}} #enwcYULbg2Q71_ts {animation: enwcYULbg2Q71_ts__ts 3000ms linear infinite normal forwards}@keyframes enwcYULbg2Q71_ts__ts { 0% {transform: translate(901.936402px,914.824951px) scale(0.7,0.7)} 16.666667% {transform: translate(901.936402px,914.824951px) scale(1,1)} 33.333333% {transform: translate(901.936402px,914.824951px) scale(0.7,0.7)} 50% {transform: translate(901.936402px,914.824951px) scale(1,1)} 66.666667% {transform: translate(901.936402px,914.824951px) scale(0.7,0.7)} 83.333333% {transform: translate(901.936402px,914.824951px) scale(1,1)} 100% {transform: translate(901.936402px,914.824951px) scale(0.7,0.7)}}
]]></style>
<path d="M393.702,1132.46h-129.916c-45.446,0-82.001,36.57-82.001,82.02c0,45.46,36.555,82.02,82.001,82.02h129.422c45.446,0,82.001-36.56,82.001-82.02c0-45.45-36.555-82.02-81.507-82.02Z" fill="#e7e7e7"/><path d="M1434.02,346.854h-253.9c-20.26,0-36.56-16.305-36.56-36.563c0-18.775,13.83-34.092,32.11-36.069h71.63c63.72,0,115.09-51.385,115.09-115.124c0-63.7376-51.37-114.6292-115.09-114.6292h-656.995c-63.724,0-115.097,51.3857-115.097,115.1242c0,63.738,51.373,115.123,115.097,115.123h125.47c18.278,1.977,32.109,17.294,32.109,36.069c0,20.258-16.301,36.563-36.554,36.563h-544.859C74.5908,346.854,0,421.462,0,513.364c0,91.901,74.5908,166.509,166.471,166.509h501.882c28.651,3.953,50.88,28.658,50.88,58.303c0,30.14-22.723,55.339-52.362,58.303h-259.338c-68.17,0-123.989,55.339-123.989,124.018c0,68.185,55.326,124.013,123.989,124.013h301.821c24.205,0,43.964,19.77,43.964,43.98s-19.759,43.97-43.964,43.97h-74.591c-45.446,0-82.001,36.57-82.001,82.02c0,45.46,36.555,82.02,82.001,82.02h727.137c45.45,0,82-36.56,82-82.02c0-45.45-36.55-82.02-82-82.02h-171.9c-24.21,0-43.97-19.76-43.97-43.97s19.76-43.98,43.97-43.98h156.09c68.17,0,123.99-55.334,123.99-124.013c0-68.185-55.32-124.018-123.99-124.018h-210.93c-29.14-3.458-52.36-28.163-52.36-58.303c0-29.645,22.23-54.35,50.88-58.303h299.85c91.88,0,166.47-74.608,166.47-166.509.49-91.902-74.1-166.51-165.98-166.51ZM1006.23,1088.49c0,24.21-19.754,43.97-43.959,43.97h-38.53c-24.205,0-43.965-19.76-43.965-43.97s19.76-43.98,43.965-43.98h38.53c24.205,0,43.959,19.77,43.959,43.98ZM917.319,310.785c0-18.775,13.831-34.092,32.108-36.069h59.273c18.28,1.977,32.11,17.294,32.11,36.069c0,20.258-16.3,36.563-36.55,36.563h-50.881c-19.759-.494-36.06-16.799-36.06-36.563Z" fill="#f0f7fd"/><g id="enwcYULbg2Q4_to" transform="translate(1181.300446,858.901032)"><g transform="translate(-1181.300445,-858.901031)"><path d="M1414.75,496.564c-1.48,4.941-6.91,7.906-11.85,6.424-4.94-1.483-7.9-6.918-6.42-11.859s6.91-7.905,11.85-6.423s7.91,6.917,6.42,11.858Z" fill="#e84c3d"/><path d="M1080.33,878.993l19.76,66.703l83.98-17.788-8.4,104.752l86.94-31.63-152.15,226.79c-33.59,50.4-101.76,63.74-151.648,30.14-50.386-33.6-63.723-101.78-30.133-151.68L1080.33,878.993Z" fill="#addfff"/><path d="M1175.18,1032.16l8.39-104.746-83.97,17.787-3.96-13.34L966.716,1124.06c-20.253,30.64-12.349,71.65,18.278,92.4c30.626,20.26,71.626,12.35,92.376-18.28l116.08-173.43-18.27,7.41Z" fill="#d6efff"/><path d="M1246.8,719.894l-68.17-12.846-22.72,82.513-88.92-54.844-11.36,91.407L936.09,610.699l191.66-105.736L1246.8,719.894Z" fill="#addfff"/><path d="M1066.99,734.717l88.92,54.845l22.72-82.514l13.34,2.471-101.76-183.803-116.577,64.232l90.887,164.039l2.47-19.27Z" fill="#d6efff"/><path d="M1124.79,512.869L944.981,612.676c-18.771,10.376-41.988,3.459-52.362-14.823-10.373-18.775-3.458-41.998,14.82-52.374l179.811-99.313c18.77-10.376,41.99-3.458,52.36,14.823c10.37,18.282,3.46,41.504-14.82,51.88Z" fill="#addfff"/><path d="M1113.92,491.623l-97.31,53.856c-9.88,5.435-22.726,1.976-28.159-7.906-5.434-9.882-1.976-22.728,7.903-28.163l97.316-53.856c9.88-5.435,22.72-1.977,28.15,7.905c5.93,9.882,2.47,22.234-7.9,28.164Z" opacity="0.5" fill="#d6efff"/><path d="M1414.26,829.088c-28.16.989-63.23,16.799-63.23,16.799s19.76-16.799,39.02-63.244c19.27-46.444,28.16-93.877,4.94-89.925-23.21,3.459-39.02,48.422-54.33,77.079-26.68,50.892-50.39,66.703-50.39,66.703s9.39-17.788-.99-32.61c-10.37-14.823-38.03-10.871-57.79,36.562-10.38,24.705-28.16,57.809-49.4,87.949-.49.494-.99,1.482-1.48,1.977-1.48,2.47-3.46,4.446-4.94,6.917-.5.494-.5.988-.99,1.482-1.98,2.471-3.46,4.941-5.43,6.917-.5.495-.99.989-.99,1.483-1.98,2.47-3.95,4.941-5.44,6.917-.49.494-.49.988-.98,1.482-1.98,2.471-3.96,4.941-5.93,6.918l-.5.494c-3.95,4.941-8.39,9.388-12.34,13.34-6.92,6.918-13.84,12.847-20.26,17.294-26.18,17.788-60.26,19.768-80.52,19.268l-75.081,111.67c-20.254,30.63-12.35,71.64,18.277,92.39c30.624,20.26,71.624,12.35,92.374-18.28l116.08-173.43c0,0,80.03-102.768,181.79-145.26c55.82-23.222,94.35-12.352,98.79-27.669c3.96-14.329-31.61-23.717-60.26-23.223Z" fill="#e84c3d"/><path d="M1347.57,702.107c-2.96,9.882-13.34,15.811-23.71,12.847-9.88-2.965-15.81-13.341-12.84-23.717c2.96-9.882,13.34-15.811,23.71-12.846c9.88,2.964,15.81,13.834,12.84,23.716Z" fill="#e84c3d"/><path d="M1301.14,585.995c-1.48,5.929-7.9,9.388-13.83,7.905-5.93-1.482-9.39-7.905-7.91-13.834c1.49-5.929,7.91-9.388,13.84-7.906c6.42,1.977,9.87,7.906,7.9,13.835Z" fill="#e84c3d"/><path d="M920.281,800.432l49.398-12.352-14.325,48.915-35.073-36.563Z" fill="#addfff"/><path d="M1340.66,1026.73l8.39-50.401l39.52,32.611-47.91,17.79Z" fill="#addfff"/><path d="M988.945,866.146l11.365-24.705l15.31,22.235-26.675,2.47Z" fill="#addfff"/><path d="M1198.89,1023.76l-90.9,135.38c-33.59,50.4-101.76,63.74-151.647,30.14-20.253-13.83-34.578-33.1-41.988-54.35-13.832,44.97,2.47,95.86,43.47,123.03c50.385,33.6,118.065,20.26,151.655-30.14l152.14-226.79-62.73,22.73Z" opacity="0.1"/><path d="M1155.91,789.561l-1.98-1.976c-68.17-44.469-109.17-132.417-147.2-209.496L939.053,615.64L1055.63,826.124l11.36-91.901l88.92,55.338Z" opacity="0.1"/><path d="M1288.79,906.168c0,0-85.46,62.749-131.89,126.492-46.44,63.73-82.5,127.97-108.18,144.77-30.14,20.25-61.751,0-63.727-24.71-1.976-25.2,29.147-66.21,81.017-84c51.86-18.28,124.97-82.509,148.68-118.578s25.2-76.091,48.91-77.573s8.39,22.728,8.39,22.728s29.64-16.799,54.84-56.82c25.68-40.022,29.64-57.809,41-45.457c11.85,12.352-39.52,82.02-79.04,113.148Z" opacity="0.2"/><path d="M1320.41,896.779c0,0,29.14-16.799,52.85-27.175c23.71-9.882,53.35-8.893,58.29-16.305c4.94-7.411-34.58-5.435-65.7,9.882-31.61,15.317-45.44,33.598-45.44,33.598Z" opacity="0.2"/><path d="M1174.68,983.246c0,0-30.13,31.124-66.69,49.414-36.06,18.77-51.86,19.27-49.89,7.41c2.47-12.85,66.69-16.31,116.58-56.824Z" opacity="0.2"/><path d="M1265.57,828.101c-.99,3.459-4.44,5.435-7.9,4.447s-5.43-4.447-4.45-7.905c.99-3.459,4.45-5.435,7.91-4.447c3.45.494,5.43,4.447,4.44,7.905Z" opacity="0.1" fill="#fff"/><path d="M1372.77,847.864c0,0,22.72-11.364,48.9-11.858s44.46,4.447,43.96,10.87c-.49,6.423-15.31-4.447-42.97-5.435-27.66-1.482-49.89,6.423-49.89,6.423Z" opacity="0.1" fill="#fff"/><path d="M1226.55,878.993c0,0-21.74,49.904-47.92,79.055-26.18,29.152-51.37,42.982-51.37,42.982s34.08-8.395,62.73-43.476s36.56-78.561,36.56-78.561Z" opacity="0.1" fill="#fff"/><path d="M1386.6,709.519c0,0-8.4,6.917-19.27,29.151-10.37,21.74-20.25,45.951-36.55,67.691-16.3,21.246-29.15,32.61-29.15,32.61s22.23-9.882,46.93-49.409c24.7-40.516,18.28-53.362,38.04-80.043Z" opacity="0.1" fill="#fff"/><path d="M1333.74,693.708c-.98,3.952-5.43,6.423-9.88,5.435-3.95-.988-6.42-5.435-5.43-9.882.99-3.953,5.43-6.423,9.88-5.435s6.42,5.929,5.43,9.882Z" opacity="0.1" fill="#fff"/><path d="M1293.73,581.054c-.99,2.964-3.46,4.447-6.42,3.458-2.97-.988-4.45-3.458-3.46-6.423.99-2.964,3.46-4.447,6.42-3.458c2.47.988,3.95,3.458,3.46,6.423Z" opacity="0.1" fill="#fff"/><path d="M1409.32,492.117c-.49,1.976-2.47,2.964-4.94,2.47-1.97-.494-2.96-2.47-2.47-4.941.5-1.976,2.47-2.964,4.94-2.47c1.48.494,2.96,2.47,2.47,4.941Z" opacity="0.1" fill="#fff"/><path d="M1193.45,1025.74l-18.28,6.42l8.4-104.252-83.48,17.787-3.95-13.34-15.81-53.362-51.37,76.584l138.31,186.273l94.85-141.31-68.67,25.2Z" opacity="0.1" fill="#fff"/><path d="M987.463,1017.34l-59.277,88.44c-1.482,2.47-2.964,4.94-4.446,7.41l119.05,160.58c26.18-5.93,50.88-21.24,66.69-45.95l15.8-23.71-137.817-186.77Z" opacity="0.1" fill="#fff"/></g></g><g id="enwcYULbg2Q32_to" transform="translate(652.153534,548.044679)"><g transform="translate(-652.153534,-452.491272)"><path d="M904.965,201.095c0,0,38.53-40.515,75.579-46.939c60.266-9.881,70.146,46.939,47.916,63.739-22.72,17.293-68.17-27.176-123.495-16.8Z" fill="#33aeff"/><path d="M898.05,156.133c0,0-1.481-30.14,9.386-46.939c18.277-27.1749,43.964-10.3757,42.482,4.941-1.482,14.823-35.566,16.305-51.868,41.998Z" fill="#33aeff"/><path d="M786.839,764.005c76.454-133.872,29.933-304.39-103.908-380.862s-304.32-29.94-380.774,103.932c-76.454,133.873-29.933,304.39,103.908,380.862c133.842,76.472,304.32,29.94,380.774-103.932Z" fill="#addfff"/><path d="M878.172,304.683L693.521,187.208L504.492,484.47L689.143,601.945L878.172,304.683Z" fill="#addfff"/><path d="M869.4,305.844L696.013,195.661c-17.783-11.364-23.216-35.081-11.855-52.868c11.362-17.787,35.073-23.222,52.856-11.858L910.4,241.118c17.784,11.364,23.217,35.08,11.856,52.868-11.362,17.787-35.073,23.222-52.856,11.858Z" fill="#addfff"/><path d="M796.786,224.812L710.34,169.968c-8.892-5.435-11.362-17.294-5.928-26.187c5.434-8.894,17.289-11.364,26.181-5.929l86.94,54.844c8.892,5.435,11.362,17.293,5.928,26.187-5.928,8.894-17.783,11.364-26.675,5.929Z" opacity="0.5" fill="#d6efff"/><path d="M841.737,281.633l-112.133-71.15L599.688,415.038c-88.917-23.222-186.724,11.858-239.086,93.878-64.711,101.289-34.579,236.177,66.687,300.903s236.122,34.587,300.833-66.703c52.362-82.019,42.482-185.285-16.301-256.434L841.737,281.633Z" fill="#d6efff"/><path d="M326.517,625.028c0,0,70.145-50.398,151.651-29.646c78.049,19.764,123.001,22.234,175.363,6.918c52.361-15.317,9.879,111.171-125.965,105.241-135.35-5.929-202.037-62.749-201.049-82.513Z" fill="#0d68be"/><path d="M711.819,486.189c0,0-26.675-38.54-60.759-35.081-34.085,2.965,2.963,44.963,2.963,44.963s-57.795-58.798-79.036-42.492c-16.301,12.846,7.41,28.657,29.639,55.338.988.988,1.482,1.976,2.47,2.965c28.65,37.057,19.265,90.419-18.278,118.088-18.771,13.341-43.964,24.705-79.036,31.128-49.398,9.388-126.459,0-183.761-35.575c0,74.608,38.037,147.734,108.182,188.744c96.82,56.327,223.278,29.152,287.496-62.75c59.277-83.996,51.373-192.202-9.88-265.328Z" fill="#33aeff"/><path d="M543.867,510.893c0,8.4-6.916,15.811-15.808,15.811-8.397,0-15.807-6.917-15.807-15.811c0-8.4,6.916-15.811,15.807-15.811c8.892.494,15.808,7.411,15.808,15.811Z" fill="#33aeff"/><path d="M857.544,94.8657c0,8.3993-6.915,15.8113-15.807,15.8113s-15.807-6.918-15.807-15.8113c0-8.3996,6.915-15.811,15.807-15.811s15.807,6.9173,15.807,15.811Z" fill="#33aeff"/><path d="M474.216,519.292c0,4.447-3.458,7.906-7.904,7.906s-7.904-3.459-7.904-7.906s3.458-7.905,7.904-7.905s7.904,3.458,7.904,7.905Z" fill="#33aeff"/><path d="M773.567,7.9055c0,4.4468-3.458,7.9055-7.904,7.9055-4.445,0-7.903-3.4587-7.903-7.9055s3.458-7.9055,7.903-7.9055c4.446,0,7.904,3.45866,7.904,7.9055Z" fill="#33aeff"/><path d="M367.518,578.583c-2.47,0-4.446-.494-6.422-2.47-4.94-3.459-5.434-10.376-1.976-15.317l34.085-43.974-25.193-66.703c-1.976-5.435.494-11.858,6.421-13.835c5.434-1.976,11.856.494,13.832,6.424l27.663,72.631c1.482,3.459.494,7.412-1.482,10.376l-37.543,48.916c-2.964,2.47-5.927,3.952-9.385,3.952Z" fill="#addfff"/><path d="M427.288,570.184c-1.976,0-3.952-.494-5.928-1.976l-35.072-23.223c-4.94-3.458-6.422-9.882-2.964-14.822c3.458-4.941,9.88-6.424,14.819-2.965l35.073,23.222c4.94,3.459,6.422,9.882,2.964,14.823-1.976,3.459-5.434,4.941-8.892,4.941Z" fill="#addfff"/><path d="M455.941,754.976C347.266,685.802,302.314,553.879,339.362,436.285c-11.361,11.858-21.241,25.199-30.626,39.528-82.989,129.946-44.459,302.879,85.952,385.393c129.916,83.007,302.809,44.468,385.303-85.973c13.338-21.246,23.711-43.974,31.121-66.702-89.904,97.336-239.086,120.065-355.171,46.445Z" opacity="0.1"/><path d="M731.58,634.417c0,0-10.374,135.875-147.206,174.415-136.832,38.539-206.977-49.41-197.591-84.985c9.385-35.574,61.747-33.104,146.711,16.306c79.037,45.95,183.76-41.01,198.086-105.736Z" opacity="0.1"/><path d="M581.412,670.485c0,0,61.254-18.776,68.169-68.185c7.41-49.409-19.759-67.691,0-75.102c19.759-7.906,74.591,123.523-68.169,143.287Z" opacity="0.1"/><path d="M743.931,605.759c0,0-3.458-39.033-22.23-79.055-18.771-40.021-37.048-59.291-48.409-56.82-11.362,2.47,10.867,31.622,31.12,55.338c20.253,24.211,39.519,80.537,39.519,80.537Z" opacity="0.1" fill="#fff"/><path d="M695.52,661.591c0,0-28.65,41.998-73.109,58.798c0,0-56.313,19.269-63.723-2.965-7.904-24.211,29.639-20.752,59.278-23.222c29.638-2.471,77.554-32.611,77.554-32.611Z" opacity="0.1" fill="#fff"/><path d="M593.263,477.295c5.183,0,9.385-4.203,9.385-9.388c0-5.184-4.202-9.387-9.385-9.387-5.184,0-9.386,4.203-9.386,9.387c0,5.185,4.202,9.388,9.386,9.388Z" opacity="0.1" fill="#fff"/><path d="M509.783,685.802c0,3.459-2.964,6.423-6.422,6.423s-6.422-2.964-6.422-6.423s2.964-6.423,6.422-6.423s6.422,2.964,6.422,6.423Z" opacity="0.1" fill="#fff"/><path d="M1028.46,181.332c0,8.4-6.91,14.823-15.31,14.823s-15.314-6.917-15.314-14.823c0-8.399,6.914-14.823,15.314-14.823c8.4-.494,15.31,6.424,15.31,14.823Z" opacity="0.1" fill="#fff"/><path d="M937.075,109.689c0,4.941-3.952,8.399-8.398,8.399-4.94,0-8.398-3.952-8.398-8.399s3.952-8.4,8.398-8.4s8.398,3.953,8.398,8.4Z" opacity="0.1" fill="#fff"/><path d="M525.591,515.339c4.365,0,7.904-3.539,7.904-7.905s-3.539-7.906-7.904-7.906-7.903,3.54-7.903,7.906s3.538,7.905,7.903,7.905Z" opacity="0.1" fill="#fff"/><path d="M466.805,517.316c0,1.482-1.482,2.965-2.964,2.965s-2.964-1.483-2.964-2.965s1.482-2.964,2.964-2.964s2.964,1.482,2.964,2.964Z" opacity="0.1" fill="#fff"/><path d="M465.328,357.724c-59.278,17.293-113.122,54.35-150.664,108.701L757.763,805.373c7.904-9.388,15.313-19.27,22.229-30.14c28.651-44.962,42.482-94.866,43.47-144.275L465.328,357.724Z" opacity="0.1" fill="#fff"/><path d="M705.4,853.3L282.06,529.668c-14.819,40.516-19.759,83.008-15.313,124.018L589.809,900.733c41.494-6.423,81.013-22.728,115.591-47.433Z" opacity="0.1" fill="#fff"/><path d="M910.402,241.118L737.015,130.935c-17.783-11.364-41.494-5.929-52.856,11.858-7.409,11.858-7.903,25.693-1.976,37.551L867.426,321.161l7.903-12.352c16.795,6.917,36.555.988,46.928-14.823c11.362-17.788,6.422-41.504-11.855-52.868Z" opacity="0.1" fill="#fff"/><path d="M774.557,467.413l54.832-86.466L655.014,247.542l-58.289,91.407L783.449,481.742c-2.47-4.941-5.434-9.882-8.892-14.329Z" opacity="0.1" fill="#fff"/><path d="M539.92,222.342c0,6.423-5.434,11.858-11.856,11.858-6.421,0-11.855-5.435-11.855-11.858c0-6.424,5.434-11.859,11.855-11.859c6.422,0,11.856,5.435,11.856,11.859Z" fill="#addfff"/></g></g><g id="enwcYULbg2Q64_tr" transform="translate(344.302994,233.706497) rotate(0)"><path d="M361.099,222.342h-5.434v-5.435c0-6.423-4.94-11.364-11.362-11.364-6.421,0-11.361,4.941-11.361,11.364v5.435h-5.434c-6.422,0-11.362,4.941-11.362,11.364c0,6.424,4.94,11.364,11.362,11.364h5.434v5.436c0,6.423,4.94,11.364,11.361,11.364c6.422,0,11.362-4.941,11.362-11.364v-5.436h5.434c6.421,0,11.361-4.94,11.361-11.364-.494-5.929-5.434-11.364-11.361-11.364Z" transform="translate(-344.302994,-233.706497)" fill="#f7e041"/></g><g id="enwcYULbg2Q65_tr" transform="translate(1377.215027,1142.345032) rotate(0)"><path d="M1394.01,1130.98h-5.44v-5.43c0-6.43-4.93-11.37-11.36-11.37-6.42,0-11.36,4.94-11.36,11.37v5.43h-5.43c-6.42,0-11.36,4.94-11.36,11.36c0,6.43,4.94,11.37,11.36,11.37h5.43v5.43c0,6.43,4.94,11.37,11.36,11.37c6.43,0,11.36-4.94,11.36-11.37v-5.43h5.44c6.42,0,11.36-4.94,11.36-11.37c0-6.42-4.94-11.36-11.36-11.36Z" transform="translate(-1377.215027,-1142.345032)" fill="#f7e041"/></g><g id="enwcYULbg2Q66_tr" transform="translate(326.520004,988.186981) rotate(360)"><path d="M343.315,976.824h-5.433v-5.435c0-6.424-4.94-11.365-11.362-11.365s-11.361,4.941-11.361,11.365v5.435h-5.434c-6.422,0-11.362,4.941-11.362,11.364s4.94,11.364,11.362,11.364h5.434v5.438c0,6.42,4.939,11.36,11.361,11.36s11.362-4.94,11.362-11.36v-5.438h5.433c6.422,0,11.362-4.941,11.362-11.364s-4.94-11.364-11.362-11.364Z" transform="translate(-326.520004,-988.186981)" fill="#f7e041"/></g><path d="M695.521,1195.71c14.186,0,25.687-11.51,25.687-25.7s-11.501-25.69-25.687-25.69c-14.187,0-25.687,11.5-25.687,25.69s11.5,25.7,25.687,25.7Z" fill="#addfff"/><path d="M1155.91,387.864c0,8.893-7.41,16.305-16.3,16.305s-16.3-7.412-16.3-16.305c0-8.894,7.41-16.305,16.3-16.305s16.3,7.411,16.3,16.305Z" fill="#addfff"/><path d="M142.264,554.373c9.003,0,16.301-7.3,16.301-16.305s-7.298-16.305-16.301-16.305-16.301,7.3-16.301,16.305s7.298,16.305,16.301,16.305Z" fill="#addfff"/><path d="M1241.86,1267.84c9.28,0,16.8-7.52,16.8-16.79c0-9.28-7.52-16.8-16.8-16.8-9.27,0-16.79,7.52-16.79,16.8c0,9.27,7.52,16.79,16.79,16.79Z" fill="#addfff"/><g id="enwcYULbg2Q71_ts" transform="translate(901.936402,914.824951) scale(0.7,0.7)"><g transform="translate(-901.936401,-914.824951)"><path d="M856.56,879.487c1.482-1.976,1.976-3.953,2.47-6.423.988-7.906-4.94-15.317-12.843-16.305l-41.001-4.447c-7.903-.988-15.313,4.941-16.301,12.846-.988,7.906,4.94,15.317,12.844,16.305l41,4.447c5.434.494,10.867-1.976,13.831-6.423Z" fill="#f7e041"/><path d="M869.897,937.79c2.47-3.459,3.458-8.4,1.976-12.847-2.47-7.905-10.867-11.858-18.771-9.388l-81.013,27.176c-7.903,2.47-11.855,10.87-9.385,18.775c2.47,7.906,10.867,11.858,18.771,9.388l81.013-27.175c2.963-.988,5.433-2.965,7.409-5.929Z" transform="translate(1.962649 0)" fill="#f7e041"/><path d="M899.533,983.247c3.952-5.93,2.964-14.329-2.47-19.27-5.927-5.435-15.313-4.941-20.747.988L841.738,1003.5c-5.434,5.93-4.94,15.32.988,20.76c5.928,5.43,15.313,4.94,20.747-.99l34.578-38.541c.494-.494.988-.988,1.482-1.482Z" transform="translate(0 0.000001)" fill="#f7e041"/></g></g></svg>
