<svg width="107" height="26" viewBox="0 0 107 26" fill="none" xmlns="http://www.w3.org/2000/svg">
<path d="M12.1942 26C10.0307 26 8.1732 25.6061 6.6216 24.8182C5.07001 24.0303 3.80251 23.0061 2.8191 21.7455C1.85755 20.4848 1.14731 19.1117 0.688385 17.626C0.229462 16.1403 0 14.7108 0 13.3377V12.5948C0 11.0641 0.229462 9.55585 0.688385 8.07013C1.16916 6.58442 1.90125 5.23377 2.88466 4.01818C3.86807 2.8026 5.11371 1.83463 6.6216 1.11429C8.15135 0.371429 9.95426 0 12.0303 0C14.1938 0 16.0732 0.405195 17.6685 1.21559C19.2857 2.00346 20.5751 3.12901 21.5366 4.59221C22.4982 6.0329 23.0773 7.72121 23.274 9.65714H18.5864C18.4116 8.5316 18.0182 7.58615 17.4063 6.82078C16.8163 6.0329 16.0623 5.44762 15.1445 5.06494C14.2266 4.65974 13.1886 4.45714 12.0303 4.45714C10.8503 4.45714 9.80129 4.671 8.88344 5.0987C7.96559 5.5039 7.20072 6.08918 6.58882 6.85455C5.97693 7.61991 5.50708 8.52035 5.17928 9.55584C4.87333 10.5913 4.72035 11.7394 4.72035 13C4.72035 14.2156 4.87333 15.3411 5.17928 16.3766C5.50708 17.4121 5.98785 18.3238 6.6216 19.1117C7.25536 19.8771 8.03115 20.4736 8.949 20.9013C9.8887 21.329 10.9704 21.5429 12.1942 21.5429C13.9862 21.5429 15.4941 21.0926 16.7179 20.1922C17.9636 19.2693 18.7175 17.9861 18.9797 16.3429H23.6673C23.4488 18.0987 22.8697 19.7082 21.93 21.1714C20.9903 22.6346 19.7009 23.8052 18.0619 24.6831C16.4229 25.561 14.467 26 12.1942 26Z" fill="#F0F7FD"/>
<path d="M27.6609 25.3584V0.709092H32.3157V25.3584H27.6609Z" fill="#F0F7FD"/>
<path d="M42.2865 17.7948V13.6416H46.9413C47.881 13.6416 48.6677 13.4502 49.3014 13.0675C49.9571 12.6849 50.4488 12.1558 50.7766 11.4805C51.1262 10.8052 51.301 10.0286 51.301 9.15065C51.301 8.27273 51.1262 7.4961 50.7766 6.82078C50.4488 6.14545 49.9571 5.62771 49.3014 5.26753C48.6677 4.88485 47.881 4.69351 46.9413 4.69351H42.2865V0.540261H46.5479C48.5584 0.540261 50.263 0.877923 51.6616 1.55325C53.0821 2.22857 54.1638 3.19654 54.9069 4.45714C55.6499 5.69524 56.0214 7.1697 56.0214 8.88052V9.42078C56.0214 11.1316 55.6499 12.6173 54.9069 13.8779C54.1638 15.116 53.0821 16.084 51.6616 16.7818C50.263 17.4571 48.5584 17.7948 46.5479 17.7948H42.2865ZM38.2873 25.3584V0.540261H42.9421V25.3584H38.2873Z" fill="#F0F7FD"/>
<path d="M59.8633 25.3584V0.540261H64.5181V25.3584H59.8633ZM74.4833 25.3584L67.1405 14.6208H72.3526L79.9248 25.3584H74.4833ZM63.1414 17.1195V13.2364H69.2385C70.0908 13.2364 70.8228 13.0563 71.4347 12.6961C72.0685 12.3359 72.5602 11.8294 72.9099 11.1766C73.2595 10.5238 73.4343 9.78095 73.4343 8.94805C73.4343 8.09264 73.2595 7.33853 72.9099 6.68571C72.5602 6.0329 72.0685 5.52641 71.4347 5.16623C70.8228 4.80606 70.0908 4.62597 69.2385 4.62597H63.1414V0.540261H68.7468C70.6699 0.540261 72.3307 0.832901 73.7294 1.41818C75.1498 2.00346 76.2425 2.89264 77.0074 4.08571C77.7723 5.27879 78.1547 6.77576 78.1547 8.57662V9.11688C78.1547 10.9403 77.7613 12.4372 76.9746 13.6078C76.2097 14.7784 75.128 15.6563 73.7294 16.2416C72.3307 16.8268 70.6699 17.1195 68.7468 17.1195H63.1414Z" fill="#F0F7FD"/>
<circle cx="94" cy="13" r="3" fill="#F0F7FD"/>
<path d="M94.3797 26C92.2162 26 90.3368 25.6061 88.7415 24.8182C87.1681 24.0303 85.8569 23.0061 84.8079 21.7455C83.7808 20.4623 83.005 19.0892 82.4805 17.626C81.9779 16.1403 81.7266 14.7108 81.7266 13.3377V12.5948C81.7266 11.0866 81.9888 9.58961 82.5133 8.1039C83.0378 6.59567 83.8245 5.23377 84.8735 4.01818C85.9443 2.8026 87.2664 1.83463 88.8399 1.11429C90.4133 0.371429 92.2599 0 94.3797 0C96.4777 0 98.3134 0.371429 99.8868 1.11429C101.46 1.83463 102.771 2.8026 103.82 4.01818C104.891 5.23377 105.689 6.59567 106.213 8.1039C106.738 9.58961 107 11.0866 107 12.5948V13.3377C107 14.7108 106.738 16.1403 106.213 17.626C105.711 19.0892 104.935 20.4623 103.886 21.7455C102.859 23.0061 101.548 24.0303 99.9524 24.8182C98.3789 25.6061 96.5214 26 94.3797 26ZM94.3797 21.5429C95.6035 21.5429 96.6962 21.3177 97.6577 20.8675C98.6412 20.4173 99.4716 19.7983 100.149 19.0104C100.848 18.2 101.373 17.2883 101.722 16.2753C102.094 15.2398 102.28 14.1481 102.28 13C102.28 11.7619 102.094 10.6251 101.722 9.58961C101.373 8.55411 100.848 7.65368 100.149 6.88831C99.4716 6.12294 98.6412 5.52641 97.6577 5.0987C96.6743 4.671 95.5817 4.45714 94.3797 4.45714C93.1559 4.45714 92.0523 4.671 91.0689 5.0987C90.0855 5.52641 89.2442 6.12294 88.5448 6.88831C87.8674 7.65368 87.3429 8.55411 86.9714 9.58961C86.6217 10.6251 86.4469 11.7619 86.4469 13C86.4469 14.1481 86.6217 15.2398 86.9714 16.2753C87.3429 17.2883 87.8674 18.2 88.5448 19.0104C89.2442 19.7983 90.0855 20.4173 91.0689 20.8675C92.0523 21.3177 93.1559 21.5429 94.3797 21.5429Z" fill="#00B67A"/>
</svg>
